<?xml version="1.0" encoding="UTF-8"?>
<svg width="500pt" height="500pt" version="1.1" viewBox="0 0 700 700" xmlns="http://www.w3.org/2000/svg" xmlns:xlink="http://www.w3.org/1999/xlink">
 <g>
  <path fill="#3E2723" d="m436.05 439.64c-24.102 14.48-53.559 24.102-85.914 24.102-32.367 0-61.812-9.6211-85.926-24.113 8.0078 42.125 39.973 82.188 85.926 82.188 45.961-0.011718 77.895-40.051 85.914-82.176m-68.723-406.37c-4.4023 0-7.9727 3.5742-7.9727 7.9727v24.258c-7.3594-2.8672-11.336-2.8008-18.691 0.10156l-0.003906-24.355c0-4.4023-3.5742-7.9727-7.9727-7.9727-4.4023 0-7.9727 3.5742-7.9727 7.9727v33.062c-3.4062 2.2852-6.8867 4.8828-10.348 7.7266-7.4258-4.2773-26.68-13.383-31.785-21.301-6.4609-9.957-4.5469-23.152 4.3359-31.023l14.023-12.465c4.0781-3.6289 4.4336-9.8789 0.81641-13.945-3.6289-4.0781-9.8789-4.4336-13.945-0.81641l-14.023 12.465c-15.992 14.223-19.645 38.148-7.7383 56.539 7.5273 11.648 21.828 18 33.488 24.719-12.02 13.562-23.531 31.371-23.531 50.133 0 19.477 7.9297 34.137 20.887 44.207 5.375 4.1758 11.613 7.5039 18.48 10-5.4102 4.9727-9.8906 10.852-13.441 17.293-37.32-15.793-71.488-37.082-102.16-61.555-37.445-29.887-69.566-64.504-95.82-99.73-3.2344-4.3789-9.418-5.2852-13.785-2.0469-4.3672 3.2461-5.2852 9.418-2.0391 13.789 27.25 36.578 60.559 72.488 99.344 103.44 32.02 25.57 67.848 47.836 107.18 64.434-0.96484 3.6953-1.6914 7.5156-2.1602 11.426h-96.98c-3.5039 0-7 1.2773-9.6992 3.5039l-96.02 78.902c-4.1992 3.4492-4.8164 9.6641-1.3555 13.867 3.4492 4.1992 9.6758 4.8047 13.867 1.3555l94.754-77.852h95.289c0.46875 4.5703 1.3008 9.0039 2.4414 13.273l-69.496 40.441c-3.4141 2.1719-5.5117 4.4922-6.8086 8.4102l-36.523 109.52-91.598 104.62c-3.5859 4.0977-3.1602 10.328 0.92969 13.91 4.0977 3.5859 10.336 3.168 13.91-0.92969l91.953-105.04c1.6562-1.8359 2.543-3.5273 3.3047-5.8125l36.152-108.46 65.645-38.191c4.9492 8.8047 11.75 16.621 20.184 22.254-11.691 7.3906-24.539 18.09-35.18 31.137-13.988 17.148-24.594 38.629-25.055 62.047 28.449 18.426 53.402 29.391 87.93 29.391 34.855 0 59.371-11.031 88.109-29.512-0.46094-23.418-11.246-44.766-25.234-61.926-10.641-13.047-23.488-23.742-35.18-31.137 8.3906-5.6016 15.164-13.383 20.113-22.133l65.43 38.07 36.164 108.47c0.76172 2.3203 1.625 3.9414 3.293 5.8008l91.953 105.04c3.5742 4.0898 9.8125 4.5117 13.91 0.92969 4.0898-3.5859 4.5117-9.8125 0.92969-13.91l-91.582-104.62-36.523-109.52c-1.2227-3.6719-3.4609-6.4727-6.8086-8.4102l-69.273-40.309c1.1523-4.3008 1.9922-8.793 2.4766-13.406h95.02l94.754 77.852c4.1992 3.4609 10.414 2.8438 13.867-1.3555 3.4609-4.1992 2.8438-10.414-1.3555-13.867l-96.016-78.902c-2.6992-2.2305-6.1836-3.5039-9.6992-3.5039h-96.711c-0.46875-3.9531-1.2227-7.8047-2.1953-11.523 39.246-16.574 74.996-38.82 106.95-64.332 38.785-30.957 72.094-66.863 99.344-103.44 3.2383-4.3672 2.3203-10.551-2.0391-13.789-4.3672-3.2383-10.551-2.3203-13.789 2.0508-26.254 35.234-58.375 69.844-95.793 99.727-30.609 24.426-64.691 45.672-101.94 61.465-3.5391-6.3828-8.0078-12.266-13.383-17.203 6.8672-2.4961 13.094-5.8242 18.469-10 12.957-10.07 20.887-24.742 20.887-44.207 0-18.648-11.602-36.781-23.633-50.223 11.625-6.707 25.805-13.004 33.32-24.629 11.906-18.379 8.2539-42.301-7.7383-56.539l-14.023-12.465c-4.0664-3.6289-10.316-3.2578-13.945 0.81641-3.6289 4.0664-3.2578 10.316 0.81641 13.945l14.023 12.465c8.8711 7.875 10.797 21.078 4.3359 31.023-5.1055 7.8945-24.227 16.934-31.641 21.211-3.5039-2.8789-7.043-5.5117-10.496-7.8164l0.003906-32.887c-0.011719-4.4023-3.5859-7.9766-7.9844-7.9766z" fill-rule="evenodd"/>
 </g>
</svg>
