<?xml version="1.0" encoding="UTF-8"?>
<svg width="500pt" height="500pt" version="1.1" viewBox="0 0 700 700" xmlns="http://www.w3.org/2000/svg" xmlns:xlink="http://www.w3.org/1999/xlink">
 <g>
  <path fill="#3E2723" d="m281.46 213.33v22.211c-33.242 19.41-70.805 45.383-109.88 28.133-15.578-6.8672-14.168-18.672-8.8477-32.816 3.168-7.0547-2.7773-15.008-10.586-13.754-16.406 2.7227-34.094 1.5-46.223-11.324-14.816-15.668-16.957-43.109-15.973-63.738 0.50391-10.16 8.6445-10.684 16.98-10.305 35.379 1.7148 84.469 29.5 115.28 48.699 17.977 11.199 36.602 22.789 59.25 32.895m137.09 22.207v-22.211c22.645-10.102 41.273-21.695 59.258-32.895 30.812-19.195 79.902-46.984 115.28-48.699 8.3203-0.37891 16.477 0.14453 16.98 10.305 0.98438 20.641-1.1523 48.07-15.973 63.738-12.129 12.824-29.812 14.043-46.223 11.324-7.8164-1.2539-13.754 6.707-10.586 13.754 5.3203 14.145 6.7305 25.949-8.8594 32.816-39.082 17.25-76.637-8.7227-109.88-28.133zm1.332 112.95c-45.504-4.9062-94.359-5.5234-139.74-0.023437l0.023438 39.793c46.672-4.8828 93.027-4.8594 139.7 0zm-3.4023 59.246c-44.297-4.5234-88.648-4.5117-132.96 0 9.3203 28.594 36.086 48.43 66.484 48.43 30.406 0 57.164-19.844 66.473-48.43zm-28.965-251.5c-2.4297-12.668-12.398-22.973-25.523-26.938 2.6875-1.8945 5.7695-3.1016 9.0938-2.7891 5.2656 0.49219 8.1875 3.9648 11.715 7.3477l14.426 13.965c3.1484 3.0469 8.1875 2.9805 11.246-0.16797 3.0586-3.1367 2.9922-8.1875-0.15625-11.246l-16.711-16.172c-5.4102-5.207-11.402-8.8125-19.027-9.543-9.375-0.90625-15.289 2.4648-22.566 7.5273-7.1133-4.9375-13.07-8.4336-22.559-7.5273-6.5742 0.64844-12.902 3.6289-18.336 8.8828l-17.406 16.844c-3.1484 3.0586-3.2148 8.1094-0.15625 11.246 3.0586 3.1484 8.0977 3.2266 11.258 0.16797l17.406-16.844c2.7656-2.6758 5.7773-4.168 8.7266-4.457 3.4609-0.32422 6.3047 0.85156 9.082 2.7656-13.125 3.9648-23.082 14.27-25.512 26.938-7.2695 4.793-13.598 10.887-18.602 18.008-7.6719-5.6328-14.582-13.281-20.945-22.332-8.8945-12.645-16.711-28.043-24.078-44.656-2.1953-4.9961-8.0312-7.2578-13.027-5.0625-4.9844 2.1953-7.2578 8.0312-5.0508 13.027 7.8047 17.617 16.219 34.113 26.008 48.047 8.2422 11.715 17.484 21.594 28.125 28.773l-0.32422 1.0078c-19.297-9.0508-35.895-19.375-51.969-29.391-34.137-21.258-85.301-49.727-124.78-51.633-19.734-0.95312-36.535 6.9336-37.609 29.074-1.2656 26.621 2.2969 58.027 21.379 78.199 13.004 13.73 30.172 19.074 48.699 18.703-3.6289 20.293 4.0547 35.281 23.297 43.746 21.191 9.3516 44.664 9.8906 66.18 1.9023l-73.629 62.305c-4.1562 3.5156-4.6719 9.7422-1.1641 13.91 3.5156 4.1562 9.7539 4.6719 13.922 1.1641l94.059-79.586-12.23 13.457c-1.9258 2.1172-2.5977 4.7266-2.5977 7.4258v65.879l-46.336 78.938c-2.7539 4.6914-1.1758 10.742 3.5156 13.484 4.6914 2.7539 10.742 1.1758 13.484-3.5156l47.285-80.562c1.1523-1.6133 1.8242-3.5938 1.8242-5.7344v-65.566l23.25-25.648 2.4648 3.8086c-8.6562 8.4688-13.539 19.531-13.539 31.695v13.52c46.973-4.5117 92.645-4.918 139.74-0.023438v-13.496c0-12.254-4.8828-23.141-13.531-31.695l2.4648-3.7969 23.23 25.648v65.566c0 2.1406 0.67188 4.1211 1.8242 5.7344l47.285 80.562c2.7539 4.6914 8.8047 6.2734 13.484 3.5156 4.6914-2.7539 6.2617-8.793 3.5156-13.484l-46.336-78.938v-64.488c0-3.3359-0.054687-6.0156-2.5977-8.8125l-25.133-27.742 106.99 90.531c4.168 3.5156 10.395 3 13.922-1.1641 3.5039-4.1562 3-10.395-1.1641-13.922l-67-56.684c18.637 5.8477 41.898 3.6172 59.551-4.1758 19.273-8.4688 26.914-23.43 23.297-43.746 18.535 0.37109 35.695-4.9727 48.707-18.703 19.074-20.172 22.645-51.574 21.379-78.199-1.0742-22.133-17.887-30.016-37.609-29.074-39.48 1.9023-90.641 30.363-124.78 51.633-16.07 10.012-32.672 20.328-51.969 29.391l-1.2773-3.707c11.066-7.2344 20.586-17.336 29.074-29.41 9.7891-13.922 18.211-30.43 26.008-48.047 2.1953-4.9844-0.078125-10.832-5.0625-13.027-4.9961-2.1953-10.832 0.066407-13.027 5.0625-7.3594 16.598-15.188 32.008-24.07 44.645-6.8086 9.6641-14.234 17.754-22.559 23.477-4.7227-6.1992-10.469-11.527-16.977-15.816z" fill-rule="evenodd"/>
 </g>
</svg>
