<?xml version="1.0" encoding="UTF-8"?>
<svg width="700pt" height="700pt" version="1.1" viewBox="0 0 700 700" xmlns="http://www.w3.org/2000/svg" xmlns:xlink="http://www.w3.org/1999/xlink">
 <g>
  <path fill="#3E2723" d="m350 301 33.195-13.52c10.875-4.4258 23.609-10.551 35.828-10.461h25.211c5.9258 0 10.539-5.1953 9.832-11.055-1.2227-34.688 0.94141-65.219 7.4375-90.363 6.293-24.359 16.645-43.559 31.91-56.379 4.1562-3.4961 4.6914-9.7109 1.1992-13.867-3.4922-4.1641-9.7109-4.6992-13.863-1.1953-18.625 15.645-31.035 38.246-38.336 66.496-6.3945 24.73-8.8945 53.895-8.3008 86.598h-11.68l-9.9102-32.48c8.5234-6.5742 14.293-17.797 18.121-30.945 6.6211-22.656 7.8516-51.609 7.8516-69.125l-0.003906-71.973c0-12.434-7.582-29.422-16.508-38.137-8.9609-8.7266-20.898-13.473-35.504-14.57-5.4336-0.40234-10.18 3.6719-10.586 9.1172-0.40234 5.4336 3.6836 10.18 9.1172 10.586 9.9219 0.73828 17.742 3.6719 23.207 9.0039 5.4414 5.3086 10.484 17.18 10.484 24.629-6.9219-5.1055-15.512-7.9648-25.637-8.7266-4.3906-0.32422-8.2227 2.9805-8.5469 7.3594-0.32422 4.3789 2.9688 8.2109 7.3594 8.5352 8.4453 0.62891 15.121 3.1367 19.789 7.6953 3.0586 2.9805 5.4219 6.9648 7.0352 12.027v12.891c-5.0742-2.9102-11.031-4.6016-17.832-5.1055-4.3906-0.32422-8.2227 2.9688-8.5469 7.3594s2.9688 8.2109 7.3477 8.5352c6.2148 0.46094 11.09 2.2734 14.461 5.543 3.1797 3.0898 4.5703 5.9141 4.5703 10.227l-68.703 50.215-68.699-50.211c0-4.3125 1.3906-7.1328 4.5703-10.227 3.3711-3.2695 8.2422-5.0977 14.461-5.543 4.3789-0.33594 7.6719-4.1562 7.3477-8.5352-0.32422-4.3906-4.1562-7.6719-8.5469-7.3594-6.7969 0.50391-12.77 2.1953-17.832 5.1055v-12.887c1.6016-5.0625 3.9648-9.0625 7.0234-12.027 4.6797-4.5586 11.344-7.0664 19.789-7.6953 4.3906-0.32422 7.6836-4.1562 7.3594-8.5352-0.32422-4.3789-4.1562-7.6719-8.5352-7.3594-10.125 0.76172-18.715 3.6055-25.637 8.7266 0-7.4492 5.0391-19.32 10.473-24.629 5.4766-5.3203 13.293-8.2656 23.219-9.0039 5.4336-0.40234 9.5195-5.1523 9.1172-10.586-0.40234-5.4414-5.1406-9.5195-10.586-9.1172-14.594 1.0859-26.531 5.8359-35.504 14.57-8.9297 8.6953-16.5 25.695-16.5 38.129v71.973c0 17.516 1.2227 46.469 7.8398 69.125 3.8398 13.148 9.5977 24.371 18.121 30.945l-9.9023 32.48h-11.691c0.59375-32.703-1.9023-61.867-8.3008-86.598-7.3008-28.258-19.711-50.848-38.336-66.496-4.1562-3.5039-10.371-2.9688-13.875 1.1992-3.4961 4.1562-2.957 10.383 1.1992 13.867 15.266 12.836 25.625 32.031 31.922 56.379 8.2227 31.832 7.3711 59.215 7.3711 91.527 0 5.4648 4.4336 9.8906 9.9023 9.8906h25.176c16.621 2.3281 20.621 4.2578 35.887 10.473zm-65.352 151.29c11.793 25.355 37.23 41.844 65.352 41.844 28.672 0 54.609-17.227 66.035-43.344l8.5469 16.32c-13.328 9.9023-21.93 21.719-27.383 34.797-6.2266 14.906-8.1992 31.238-8.4883 48.105-0.078126 5.4414 4.2656 9.9219 9.7109 10.012 5.4336 0.089843 9.9219-4.2578 10-9.6992 0.24609-14.594 1.8828-28.547 7.0117-40.848 4.8398-11.547 12.98-21.895 26.375-30.23 4.7695-3.0586 7.1016-8.1211 4.3359-13.441l-24.129-46.027v-85.445l18.648 22.59 2.1953 29.391-6.6289 19.848c-1.7266 5.1641 1.0625 10.762 6.2266 12.477 5.1758 1.7266 10.762-1.0625 12.477-6.2266l7.0898-21.203c0.55859-1.3672 0.80469-2.8789 0.69531-4.4453l-2.5859-34.395c-0.15625-1.9609-0.88672-3.8867-2.2188-5.5234l-37.766-45.785c-4.9297-6.7422-11.211-3.5625-17.191-1.1328l-52.957 21.559-57.938-23.586c-4.4688-1.9492-9.4297-0.78516-12.297 3.3047l-37.656 45.652c-1.332 1.6367-2.0625 3.5625-2.2188 5.5234l-2.5977 34.395c-0.125 1.5664 0.14453 3.0781 0.69531 4.4453l7.0781 21.203c1.7266 5.1641 7.3125 7.9414 12.477 6.2266 5.1641-1.7266 7.9414-7.3125 6.2266-12.477l-6.6289-19.848 2.1953-29.391 18.637-22.59 0.042969 90.281-23.922 40.746c-3.1016 5.2852-0.80469 10.898 4.0977 13.867 13.43 8.332 21.539 18.648 26.363 30.23 5.1406 12.297 6.7773 26.266 7.0234 40.848 0.078125 5.4414 4.5703 9.7891 10 9.6992 5.4336-0.089844 9.7773-4.5703 9.6992-10.012-0.26953-16.855-2.25-33.188-8.4766-48.105-5.4219-12.957-13.91-24.695-27.027-34.52z" fill-rule="evenodd"/>
 </g>
</svg>
