<?xml version="1.0" encoding="UTF-8"?>
<svg width="700pt" height="700pt" version="1.1" viewBox="0 0 700 700" xmlns="http://www.w3.org/2000/svg" xmlns:xlink="http://www.w3.org/1999/xlink">
 <g>
  <path fill="#3E2723" d="m340.84 481.96v-281.77c-21.191-3.1484-43.309-18.93-56.258-31.406l-43.836 62.047-102.26 42.984c-5.0508 2.1172-7.4258 7.9297-5.3203 12.98 2.1172 5.0508 7.9414 7.4258 12.98 5.3203l102.11-42.906c3.2578-1.3789 5.7227-2.7656 7.9062-5.8906l28.438-40.254c-0.37891 10.383-0.51562 21.324-0.42578 32.336l-40.926 62.707c-1.6562 2.5195-2.5078 5.3203-2.5078 8.3555v115.1c-61.52 28.902-116.15 67.508-156.74 122.69-3.2148 4.4023-2.2617 10.605 2.1406 13.844 4.4023 3.2148 10.605 2.2617 13.844-2.1406 36.836-50.086 86.496-86.004 141.97-113.04 6.0039-2.9102 15.559-6.4414 19.219-12.41l40.477-65.945 28.301 103.91c1.7578 6.4727 5.8672 10.977 10.887 13.484m-49.941-335.35c10.191 11.781 29.559 28.426 49.301 32.469l6.707-56c0.97266-8.2539 7.0117-7.6289 7.8945 0.066406l6.5195 55.809c19.375-3.9766 38.395-20.082 48.719-31.82l-1.8828-8.6367 56.281-18.762c7-2.375 10.922-7.7852 10.922-15.086 0.22266-32.535 16.039-59.414 40.441-80.078 4.1758-3.5273 4.6914-9.7773 1.1641-13.957-3.5391-4.1758-9.7891-4.7031-13.965-1.1641-28.223 23.879-46.289 54.938-47.363 92.391l-51.723 17.227-7.7617-35.582c-2.25-10.27-8.625-19.062-17.719-24.305 15.367-26.297 40.141-38.293 69.441-43.164 4.3438-0.71875 7.293-4.8398 6.5625-9.1836-0.72656-4.3438-4.8398-7.293-9.1836-6.5625-35.547 5.9141-64.938 21.594-82.441 54.074-7.1445-0.58203-16.992-0.50391-24.078-0.042969-17.504-32.57-46.883-48.281-82.512-54.207-4.3438-0.71875-8.4688 2.2188-9.1836 6.5625-0.72656 4.3438 2.2188 8.457 6.5625 9.1953 29.211 4.8477 53.996 16.801 69.352 42.996-9.4062 5.1953-15.992 14.125-18.289 24.652l-8.4258 38.66-51.879-17.281c-1.0625-37.453-19.141-68.523-47.363-92.391-4.1758-3.5391-10.426-3.0117-13.965 1.1641-3.5273 4.1797-3.0117 10.426 1.1641 13.957 24.078 20.383 39.828 46.816 40.434 78.895 0.10156 8.8477 3.4609 13.766 11.918 16.598l55.473 18.492zm80.672 321.72 27.91-104.74 41.195 66.922c2.2305 3.9648 18.336 9.8125 23.488 12.41 53.055 26.699 100.44 61.848 135.87 110.03 3.2266 4.4023 9.4297 5.3633 13.832 2.1406 4.4023-3.2266 5.3555-9.4297 2.1406-13.844-40.59-55.172-95.234-93.801-156.74-122.7l-0.003907-115.11c0-4.6719-1.6016-6.957-3.832-10.371l-38.852-59.059c0.078125-11.266-0.089844-22.445-0.50391-32.996l27.352 38.695c2.1836 3.0469 4.1562 4.7031 7.5938 6.1602l102.84 43.223c5.0508 2.1172 10.875-0.26953 12.992-5.3203 2.1055-5.0508-0.26953-10.863-5.3203-12.98l-102.26-42.984-42.012-59.449c-12.902 12.531-35.203 28.539-56.57 31.719v281.95c5.0156-2.4883 9.1367-7.0469 10.883-13.699z" fill-rule="evenodd"/>
 </g>
</svg>
