<?xml version="1.0" encoding="UTF-8"?>
<svg width="700pt" height="700pt" version="1.1" viewBox="0 0 700 700" xmlns="http://www.w3.org/2000/svg" xmlns:xlink="http://www.w3.org/1999/xlink">
 <g>
  <path fill="#3E2723" d="m460.43 174.37-58.676 33.879c-0.60547-0.77344-2.7539-3.293-2.5078-3.0117l17.16-24.293c1.2227-1.7344 1.8047-3.7188 1.8047-5.6914l0.011718-79.117c0-5.4648-4.4258-9.8906-9.8906-9.8906-5.4648 0-9.8906 4.4258-9.8906 9.8906v76.004l-14.211 20.125-2.9336-1.7812v-16.16c0-1.8359-0.49219-3.5391-1.3555-5.0078l-5.6914-11.535v-15.824c0-5.4648-4.4258-9.8906-9.8906-9.8906-5.4648 0-9.9023 4.4258-9.9023 9.8906l0.023437 18.078c-0.011719 1.4688 0.32422 2.9688 1.0195 4.3672l6.0039 12.195v6.5742c-7.6719-1.4336-15.578-1.4336-23.25 0v-6.5742l6.0156-12.195c0.68359-1.3984 1.0195-2.9023 1.0078-4.3672l0.023438-18.078c0-5.4648-4.4336-9.8906-9.9023-9.8906-5.4531 0-9.8906 4.4258-9.8906 9.8906v15.824l-5.6914 11.535c-0.86328 1.4688-1.3555 3.1797-1.3555 5.0078v16.16l-2.7773 1.6797-14.145-20.027-0.003907-76.008c0-5.4648-4.4258-9.8906-9.8906-9.8906-5.4648 0-9.8906 4.4258-9.8906 9.8906l0.023438 79.117c-0.011719 1.9609 0.58203 3.9531 1.8047 5.6914l17.07 24.16-2.5664 3.0703-58.531-33.789-76.52-145.72c-2.543-4.8164-8.5117-6.6641-13.328-4.1328-4.8281 2.543-6.6758 8.5117-4.1328 13.34l77.852 148.18c0.83984 1.6016 2.1289 2.9922 3.8086 3.9531l60.703 35.043c-2.2852 5.1641-4.0781 10.641-5.2969 16.363h-59.078l-138.92-77.074c-4.75-2.6328-10.773-0.92969-13.406 3.832-2.6445 4.7617-0.94141 10.762 3.8203 13.406l140.5 77.965c1.5781 1.0547 3.4609 1.668 5.5 1.668h59.719c0.066406 3.1914 0.3125 6.3398 0.71875 9.4414l-61.105 16.363c-2.3203 0.62891-4.2227 2.0156-5.5 3.832l-108.08 131.4c-3.4492 4.1992-2.8438 10.414 1.3555 13.867 4.1992 3.4609 10.414 2.8555 13.875-1.3555l106.48-129.46 57.824-15.488c2.0039 5.1953 4.4922 10.09 7.4023 14.617l-63.996 65.789c-1.8594 1.9141-2.7891 4.4023-2.7891 6.875l-0.035156 149.64c0 5.4648 4.4258 9.8906 9.8906 9.8906 5.4648 0 9.8906-4.4258 9.8906-9.8906v-145.68l20.73-21.301c-3.4609 9.6875-5.4766 20.035-5.4766 30.777 0 27.688 9.6562 52.863 25.258 71.188 34.352 40.344 91.012 40.332 125.35 0 15.59-18.324 25.246-43.5 25.246-71.188 0-10.875-2.0625-21.348-5.6016-31.148l21.09 21.672v145.67c0 5.4648 4.4258 9.8906 9.8906 9.8906s9.9023-4.4258 9.9023-9.8906l-0.035157-149.64c0.011719-2.4883-0.92969-4.9609-2.7891-6.875l-64.152-65.945c2.8789-4.5039 5.3438-9.375 7.3242-14.516l58.051 15.547 106.48 129.46c3.4609 4.1992 9.6758 4.8047 13.875 1.3555 4.1992-3.4492 4.8047-9.6641 1.3555-13.867l-108.08-131.4c-1.2773-1.8125-3.1797-3.2031-5.5-3.832l-61.344-16.418c0.40234-3.0781 0.64844-6.2031 0.71875-9.3867h59.953c2.0273 0 3.9219-0.61719 5.5-1.668l140.5-77.965c4.7617-2.6445 6.4609-8.6562 3.8203-13.406-2.6328-4.75-8.6562-6.4609-13.406-3.832l-138.91 77.078h-59.316c-1.1992-5.6914-2.9805-11.133-5.2422-16.262l60.883-35.145c1.6797-0.96484 2.9688-2.3398 3.8086-3.9531l77.852-148.18c2.543-4.8164 0.68359-10.797-4.1328-13.34-4.8164-2.543-10.785-0.69531-13.328 4.1328z" fill-rule="evenodd"/>
 </g>
</svg>
